<svg width="168" height="51" viewBox="0 0 168 51" fill="none" xmlns="http://www.w3.org/2000/svg">
<g filter="url(#filter0_d_2_202)">
<path fill-rule="evenodd" clip-rule="evenodd" d="M149.34 13.4294C154.862 13.4294 160.212 16.7605 162.661 22.3452C163.554 24.3778 164 26.4621 164 28.4946C164 34.1359 160.877 39.3866 155.638 41.7532C153.798 42.6048 151.906 43 150.01 43C144.432 43 139.083 39.6689 136.633 34.0841C135.792 32.0516 135.346 29.9626 135.346 27.8736C135.346 22.2888 138.413 16.9863 143.707 14.615C145.552 13.8246 147.444 13.4294 149.34 13.4294ZM15.987 0C16.4285 0 16.7074 0.169378 16.9909 0.508135L31.1996 29.6224L45.4175 0.508135C45.6964 0.169378 45.9752 0 46.4214 0H56.8978C57.4602 0 57.7344 0.282297 57.7344 0.846892V2.54068C57.7344 3.10527 57.4602 3.38286 56.8978 3.38286C55.6754 3.38286 54.5042 3.6087 53.4444 4.22975V33.5746C53.4444 36.6234 54.8388 38.9335 57.5671 38.9335C58.1249 38.9335 58.4084 39.2205 58.4084 39.7851V41.4742C58.4084 42.0388 58.1249 42.3211 57.5671 42.3211H43.8C43.298 42.3211 42.9634 42.0388 42.9634 41.4742V39.7851C42.9634 39.2205 43.298 38.9335 43.8 38.9335C46.533 38.9335 47.8716 36.6234 47.8716 33.5746V12.1858L34.7134 39.1641C34.546 39.5546 34.216 39.7851 33.7652 39.7851H28.6339C28.1924 39.7851 27.8577 39.5546 27.6346 39.1641L14.5322 12.1858V33.5746C14.5322 36.6234 15.8708 38.9335 18.6037 38.9335C19.1057 38.9335 19.4403 39.2205 19.4403 39.7851V41.4742C19.4403 42.0388 19.1057 42.3211 18.6037 42.3211H4.83198C4.27887 42.3211 4 42.0388 4 41.4742V39.7851C4 39.2205 4.27887 38.9335 4.83198 38.9335C7.56494 38.9335 8.95932 36.6234 8.95932 33.5746V4.22975C7.89959 3.6087 6.72832 3.38286 5.50592 3.38286C4.94817 3.38286 4.6693 3.10527 4.6693 2.54068V0.846892C4.6693 0.282297 4.94817 0 5.50592 0H15.987ZM72.149 12.359C72.2606 12.359 72.2606 12.359 72.3117 12.4154V33.5783C72.3117 36.6224 73.6549 38.9326 76.3832 38.9326H76.5552C77.113 38.9326 77.3872 39.2196 77.3872 39.7842V41.4732C77.3872 42.0378 76.9968 42.3201 76.439 42.3201H60.6687C60.1109 42.3201 59.7205 42.0378 59.7205 41.4732V39.7842C59.7205 39.2196 59.9947 38.9326 60.5525 38.9326H60.6687C63.397 38.9326 64.7356 36.6224 64.6798 33.5783V27.5936C64.6798 27.4781 64.6794 27.3615 64.6782 27.244L64.6759 27.0672C64.6362 24.643 64.2476 21.9293 61.3891 21.6136C60.8313 21.5572 60.7198 21.2702 60.7198 20.8749V18.96C60.7198 18.5084 60.9987 18.3954 61.5564 18.2261C67.4128 16.25 70.3084 14.0481 71.8143 12.4672C71.8701 12.4154 71.9817 12.359 72.0375 12.359H72.149ZM91.8891 12.3571C91.9495 12.3571 92.0053 12.3571 92.0053 12.4136L90.6667 20.0309C92.67 15.6882 96.5184 13.3734 100.478 13.3734C103.932 13.3734 106.772 15.3494 106.772 19.184C106.772 20.8778 106.665 22.2328 105.326 22.7974L100.088 24.9429C99.9207 25.0511 99.7534 25.0511 99.5861 25.0511C99.2514 25.0511 99.0841 24.8299 99.0841 24.5476C99.0841 24.3783 99.1399 24.2089 99.1956 24.0395C99.6372 22.9668 99.6976 22.007 99.6976 21.2165C99.6976 19.184 98.5821 18.2806 97.0808 18.2806C94.5152 18.2806 92.2795 21.1083 91.4987 23.1926V33.5764C91.4987 36.6206 92.8373 38.9354 95.5703 38.9354H95.6865C96.2396 38.9354 96.5184 39.2177 96.5184 39.7823V41.4761C96.5184 42.0407 96.2396 42.3183 95.6865 42.3183H79.4653C78.9029 42.3183 78.624 42.0407 78.624 41.4761V39.7823C78.624 39.2177 78.9029 38.9354 79.4653 38.9354H79.5722C82.3051 38.9354 83.6437 36.6206 83.6437 33.5764L83.6436 26.3628L83.6429 26.1629L83.6412 25.9629C83.6102 23.1286 83.2502 20.2988 80.353 19.9744C79.7953 19.9227 79.6837 19.6357 79.6837 19.2404V17.3255C79.6837 16.8691 79.9626 16.7045 80.5203 16.5916C85.819 15.7447 90.0532 13.5427 91.4987 12.47C91.6149 12.4136 91.666 12.3571 91.7822 12.3571H91.8891ZM120.167 12.3571C120.227 12.3571 120.283 12.3571 120.283 12.4136L118.945 20.0309C120.948 15.6882 124.796 13.3734 128.756 13.3734C132.21 13.3734 135.05 15.3494 135.05 19.184C135.05 20.8778 134.943 22.2328 133.604 22.7974L128.366 24.9429C128.199 25.0511 128.031 25.0511 127.864 25.0511C127.529 25.0511 127.362 24.8299 127.362 24.5476C127.362 24.3783 127.418 24.2089 127.474 24.0395C127.915 22.9668 127.975 22.007 127.975 21.2165C127.975 19.184 126.86 18.2806 125.359 18.2806C122.793 18.2806 120.557 21.1083 119.777 23.1926V33.5764C119.777 36.6206 121.115 38.9354 123.848 38.9354H123.964C124.517 38.9354 124.796 39.2177 124.796 39.7823V41.4761C124.796 42.0407 124.517 42.3183 123.964 42.3183H107.743C107.181 42.3183 106.902 42.0407 106.902 41.4761V39.7823C106.902 39.2177 107.181 38.9354 107.743 38.9354H107.85C110.583 38.9354 111.922 36.6206 111.922 33.5764V26.4626L111.921 26.1629C111.904 23.2632 111.596 20.3064 108.631 19.9744C108.073 19.9227 107.962 19.6357 107.962 19.2404V17.3255C107.962 16.8691 108.24 16.7045 108.798 16.5916C114.097 15.7447 118.331 13.5427 119.777 12.47C119.893 12.4136 119.944 12.3571 120.06 12.3571H120.167ZM147.611 17.9461C146.886 17.9461 146.106 18.1155 145.38 18.4495C142.926 19.527 141.983 21.7807 141.983 24.3778C141.983 26.4621 142.596 28.7816 143.545 30.9788C145.329 34.9875 148.276 38.4832 151.739 38.4832C152.464 38.4832 153.184 38.3139 153.965 37.9798C156.363 36.9024 157.312 34.6487 157.312 32.0516C157.312 29.9626 156.698 27.596 155.75 25.4505C154.021 21.4419 151.009 17.9461 147.611 17.9461ZM68.4167 0.563654C69.416 0.563654 70.1969 0.95887 71.2008 1.97514C72.2048 2.99141 72.5952 3.78184 72.5952 4.79341C72.5952 5.80968 72.2048 6.66128 71.2008 7.61638C70.1969 8.63265 69.416 9.02787 68.4167 9.02787C67.4128 9.02787 66.5715 8.63265 65.628 7.61638C64.624 6.66128 64.2336 5.80968 64.2336 4.79341C64.2336 3.78184 64.624 2.99141 65.628 1.97514C66.5715 0.95887 67.4128 0.563654 68.4167 0.563654Z" fill="white"/>
</g>
<defs>
<filter id="filter0_d_2_202" x="0" y="0" width="168" height="51" filterUnits="userSpaceOnUse" color-interpolation-filters="sRGB">
<feFlood flood-opacity="0" result="BackgroundImageFix"/>
<feColorMatrix in="SourceAlpha" type="matrix" values="0 0 0 0 0 0 0 0 0 0 0 0 0 0 0 0 0 0 127 0" result="hardAlpha"/>
<feOffset dy="4"/>
<feGaussianBlur stdDeviation="2"/>
<feComposite in2="hardAlpha" operator="out"/>
<feColorMatrix type="matrix" values="0 0 0 0 0 0 0 0 0 0 0 0 0 0 0 0 0 0 0.25 0"/>
<feBlend mode="normal" in2="BackgroundImageFix" result="effect1_dropShadow_2_202"/>
<feBlend mode="normal" in="SourceGraphic" in2="effect1_dropShadow_2_202" result="shape"/>
</filter>
</defs>
</svg>
